:SAMPLES-PER-SECOND 30
:FULLY-SPECIFIED
:DEGREES
261
root  6.79042 34.5823 14.0027 7.85244 -56.2525 -1.65287
LeftUpLeg  -14.31 21.6898 -1.97622
LeftLeg  16.1734 18.0191 3.91856
LeftFoot  1.07323 -0.000286616 0.0305928
LeftToes  -9.64125 1.85109e-006 5.31342e-008
Spine  5.5064 -4.26658 2.71182
Spine1  8.0716 -11.5277 8.46421
RightShoulder  0.122472 6.24892 8.37391
RightArm  -25.2325 -4.85775 71.6016
RightForeArm  20.5481 40.2161 8.58122
RightHand  2.45392 -16.5014 -16.4278
LeftShoulder1  0.17066 -6.87066 9.58433
LeftArm  -61.0469 -40.1328 -4.07951
LeftForeArm  38.1248 -26.4091 -5.00786
LeftHand  -0.497515 -8.105 6.6493
HEad  -16.7219 52.4404 -17.1271
RightUpLeg  -22.662 -2.70133 -10.4958
RightLeg  15.589 13.7324 2.86925
RightFoot  24.2978 -1.07658 5.37534
RightToes  -48.2802 -0.287773 -0.356963
262
root  7.1096 34.6783 14.3116 8.88736 -54.7179 -2.57852
LeftUpLeg  -13.5675 20.3665 -2.27526
LeftLeg  13.3161 17.8553 2.97802
LeftFoot  1.76439 -0.00484146 0.314403
LeftToes  -7.90939 1.85109e-006 5.31342e-008
Spine  4.18044 -5.70316 4.41271
Spine1  6.36314 -13.1584 9.92276
RightShoulder  0.0842335 6.61382 4.27608
RightArm  -26.9278 -3.06046 73.2354
RightForeArm  27.1639 32.3347 6.40632
RightHand  1.91081 -14.1472 -14.9318
LeftShoulder1  0.106539 -5.37519 9.38265
LeftArm  -49.4069 -66.7379 -21.5868
LeftForeArm  48.6672 -37.3006 -7.69475
LeftHand  -0.171358 -11.7517 1.29574
HEad  -22.1781 54.9212 -25.6601
RightUpLeg  -21.9505 -2.47965 -11.1143
RightLeg  17.2166 11.4 2.72614
RightFoot  23.9577 -0.854038 4.40107
RightToes  -49.1416 -0.295312 -0.36073
263
root  7.283 34.7173 14.782 11.0106 -57.6461 -4.56042
LeftUpLeg  -12.714 21.6174 -2.1359
LeftLeg  11.5872 18.8251 2.56425
LeftFoot  1.43371 -0.0039228 0.313511
LeftToes  -6.88271 1.85109e-006 5.31342e-008
Spine  3.45069 -6.9195 4.61019
Spine1  5.52337 -14.5979 9.11358
RightShoulder  0.123248 6.7893 4.49549
RightArm  -27.9004 1.01954 74.5343
RightForeArm  37.3003 20.5699 3.78151
RightHand  1.26024 -10.4275 -13.3671
LeftShoulder1  0.0657469 -7.58907 6.60331
LeftArm  12.8029 -72.977 -84.0498
LeftForeArm  51.832 -49.1657 -11.7632
LeftHand  0.344508 -11.9802 -3.65439
HEad  -28.644 58.5373 -32.3232
RightUpLeg  -22.11 0.00154053 -11.3586
RightLeg  18.3583 11.7528 3.0555
RightFoot  23.4154 -0.891185 4.67592
RightToes  -48.4239 -0.297644 -0.361667
264
root  7.39644 34.6807 15.1931 12.7084 -63.4943 -6.11859
LeftUpLeg  -11.9707 23.4914 -2.18356
LeftLeg  11.3984 19.2875 2.56143
LeftFoot  0.374657 9.52444e-007 -0.000300363
LeftToes  -6.18137 1.85109e-006 5.31342e-008
Spine  3.25274 -7.9093 4.46718
Spine1  5.50104 -16.1589 8.24292
RightShoulder  0.14967 7.00347 3.91752
RightArm  -32.8384 4.37615 77.1449
RightForeArm  45.72 14.3379 2.56222
RightHand  1.13874 -10.2833 -12.2271
LeftShoulder1  0.0482735 -8.80507 3.51066
LeftArm  41.8379 -59.9204 -109.809
LeftForeArm  48.5875 -58.1821 -16.5492
LeftHand  0.821908 -12.7663 -7.71114
HEad  -34.444 59.4854 -36.8903
RightUpLeg  -22.5737 2.94322 -11.9074
RightLeg  18.7276 12.9912 3.46036
RightFoot  22.889 -0.978932 5.21021
RightToes  -49.1715 -0.297825 -0.361748
265
root  7.50705 34.6214 15.4924 13.4265 -70.8306 -6.82602
LeftUpLeg  -11.1846 24.2967 -2.45081
LeftLeg  12.1533 20.2065 2.9437
LeftFoot  -0.602051 -0.00163087 -0.310416
LeftToes  -6.2379 1.85109e-006 5.31342e-008
Spine  3.40999 -8.43975 3.85778
Spine1  6.11076 -16.9525 6.71468
RightShoulder  0.148579 7.14003 3.22968
RightArm  -37.9888 6.31871 79.3986
RightForeArm  45.9 11.636 2.06141
RightHand  1.34179 -13.0264 -11.3366
LeftShoulder1  0.0335279 -7.85106 0.673164
LeftArm  50.7963 -48.8401 -111.702
LeftForeArm  56.378 -66.5018 -24.0312
LeftHand  1.28865 -13.1866 -11.4903
HEad  -36.2256 58.4121 -37.2009
RightUpLeg  -23.1725 4.92244 -12.7269
RightLeg  18.9662 15.1637 4.09221
RightFoot  22.0857 -1.10224 6.02095
RightToes  -49.4025 -0.296789 -0.361136
266
root  7.61753 34.5442 15.6872 13.5038 -78.7456 -7.27275
LeftUpLeg  -9.93812 24.4496 -2.53907
LeftLeg  13.0122 20.643 3.31367
LeftFoot  -1.35736 -0.00692359 -0.584483
LeftToes  -6.97875 1.85109e-006 5.31342e-008
Spine  3.82212 -8.30502 3.07895
Spine1  7.11637 -16.5525 4.97701
RightShoulder  0.144389 6.63469 4.07486
RightArm  -38.42 6.41526 79.3845
RightForeArm  40.0945 12.6118 2.2486
RightHand  1.27482 -15.0794 -9.23556
LeftShoulder1  0.0247625 -6.51835 -0.580246
LeftArm  51.4113 -41.5693 -107.318
LeftForeArm  67.8761 -74 -38.2384
LeftHand  1.50962 -11.422 -15.3886
HEad  -35.6853 58.1218 -36.0415
RightUpLeg  -23.9361 5.60908 -13.3057
RightLeg  20.1066 18.0334 5.21932
RightFoot  20.7986 -1.20087 6.91391
RightToes  -48.5588 -0.295468 -0.359989
267
root  7.69545 34.4849 15.7786 14.1705 -85.7727 -8.09533
LeftUpLeg  -8.64274 24.2567 -2.50062
LeftLeg  13.0111 19.9719 3.21017
LeftFoot  -1.59164 -0.00890923 -0.641388
LeftToes  -8.33542 1.85109e-006 5.31342e-008
Spine  4.00233 -7.78472 2.6073
Spine1  7.58937 -15.5276 4.13276
RightShoulder  0.110657 5.34889 5.5478
RightArm  -35.2645 4.92391 76.8049
RightForeArm  34.2063 15.6891 2.83062
RightHand  0.859976 -15.1733 -6.07742
LeftShoulder1  0.0204431 -5.92806 -1.36316
LeftArm  46.1305 -35.1485 -101.188
LeftForeArm  80.0718 -78.2035 -58.4064
LeftHand  1.3079 -9.08928 -16.726
HEad  -35.023 59.3859 -36.3497
RightUpLeg  -24.3097 5.66977 -13.6362
RightLeg  20.3734 19.8208 5.812
RightFoot  19.7709 -1.20693 7.2949
RightToes  -49.0825 -0.294793 -0.358468
268
root  7.71827 34.4459 15.7606 -168.951 -89.4071 175.188
LeftUpLeg  -7.64542 24.1703 -2.48785
LeftLeg  12.2332 18.7846 2.77076
LeftFoot  -1.42791 -0.00664958 -0.533614
LeftToes  -10.3133 1.85109e-006 5.31342e-008
Spine  3.99356 -7.47645 2.3866
Spine1  7.66013 -15.0324 3.99459
RightShoulder  0.0580469 3.97258 7.13022
RightArm  -30.6423 2.21279 72.6365
RightForeArm  30.738 19.8929 3.65112
RightHand  0.672259 -13.9179 -5.13119
LeftShoulder1  0.0184073 -5.14057 -2.78054
LeftArm  40.5898 -29.4079 -94.9881
LeftForeArm  96.3337 -79.7146 -79.0206
LeftHand  1.08365 -7.94589 -15.8915
HEad  -35.9711 61.5265 -38.0799
RightUpLeg  -23.8019 5.16008 -13.8564
RightLeg  19.2909 20.5658 5.61247
RightFoot  18.4887 -1.08653 7.04562
RightToes  -49.0852 -0.294816 -0.356732
269
root  7.69251 34.3666 15.6504 -158.294 -86.8224 164.866
LeftUpLeg  -7.5611 25.049 -3.16254
LeftLeg  11.9269 18.9248 2.68945
LeftFoot  -1.84591 -0.010884 -0.675606
LeftToes  -10.3793 1.85109e-006 5.31342e-008
Spine  3.94983 -7.13606 2.1379
Spine1  7.63123 -14.4234 3.68959
RightShoulder  0.0324569 2.62413 8.20435
RightArm  -27.1528 -2.61945 68.373
RightForeArm  29.6819 27.3715 5.23166
RightHand  1.02332 -12.7231 -8.78496
LeftShoulder1  0.017661 -4.43126 -3.75836
LeftArm  35.8622 -24.5997 -89.4075
LeftForeArm  109.769 -79.8726 -93.4681
LeftHand  0.918672 -6.93746 -15.454
HEad  -36.845 62.8391 -38.6174
RightUpLeg  -22.5973 5.07007 -14.7066
RightLeg  17.5422 20.8442 5.02563
RightFoot  16.3647 -0.849524 6.28034
RightToes  -47.6967 -0.282699 -0.35494
